<svg xmlns="http://www.w3.org/2000/svg" viewBox="0 0 128 128" width="64" height="64" role="img" aria-label="Java">
  <!-- Java logo: classic coffee-cup silhouette in Duke orange + blue -->

  <!-- Cup body -->
  <path d="M47.617 98.12s-4.767 2.774 3.397 3.71c9.892 1.13 14.947.968
    25.845-1.092 0 0 2.87 1.795 6.874 3.35-24.444 10.47-55.308-.607-36.116-5.968z"
    fill="#5382a1"/>

  <!-- Steam wisps -->
  <path d="M44.629 84.455s-5.346 4.01 2.823 4.862c10.571 1.092 18.928.938
    33.398-1.27 0 0 1.992 2.023 5.124 3.132-29.573 8.644-62.485.76-41.345-6.724z"
    fill="#5382a1"/>

  <!-- Cup top -->
  <path d="M69.802 61.271c6.025 6.929-1.58 13.166-1.58 13.166s15.289-7.891
    8.269-17.766c-6.559-9.215-11.587-13.792 15.635-29.58 0 0-42.731
    10.67-22.324 34.18z"
    fill="#e76f00"/>

  <!-- Handle -->
  <path d="M102.123 108.229s3.529 2.91-3.888 5.159c-14.102 4.272-58.706
    5.56-71.075.171-4.45-1.936 3.888-4.625 6.508-5.192 2.725-.593 4.284-.484
    4.284-.484-4.935-3.474-31.88 6.82-13.682 9.774 49.563 8.05 90.341-3.625
    77.853-9.428z"
    fill="#5382a1"/>

  <!-- Bottom text band -->
  <path d="M49.547 74.791s-22.51 5.348-7.977 7.289c6.141.83 18.379.64
    29.804-.326 9.325-.788 18.684-2.473 18.684-2.473s-3.287 1.408-5.667
    3.029c-22.859 6.011-67.008 3.209-54.283-2.937 10.801-5.21 19.439-4.582
    19.439-4.582z"
    fill="#5382a1"/>

  <!-- Duke wave -->
  <path d="M90.451 86.921c23.247-12.083 12.5-23.69 4.996-22.133-1.84.385-2.66.72
    -2.66.72s.684-1.07 1.986-1.532c14.85-5.22 26.271 15.393-4.793 23.56 0
    0 .36-.326.471-.615z"
    fill="#e76f00"/>

  <!-- Cup base / spout shape -->
  <path d="M76.491 1.587S89.459 14.563 64.122 30.647c-20.309 12.753-4.633
    20.02-.007 28.313-9.409-8.493-16.318-15.966-11.678-22.92C59.571 25.55
    81.203 19.927 76.491 1.587z"
    fill="#e76f00"/>

  <!-- Small accent drop -->
  <path d="M52.214 126.021c22.28 1.423 56.525-.79 57.346-11.31 0 0-1.557
    4-18.447 7.16-19.049 3.57-42.527 3.155-56.474.863 0 0 2.854 2.358
    17.575 3.287z"
    fill="#5382a1"/>
</svg>
